<svg xmlns="http://www.w3.org/2000/svg" viewBox="0 0 646.42 349.31"><defs><style>.cls-1{opacity:0.6;}.cls-2{fill:none;stroke:#fff;stroke-miterlimit:10;stroke-width:3px;}</style></defs><g id="Layer_2" data-name="Layer 2"><g id="Layer_16" data-name="Layer 16"><g id="Diagrama-camion" class="cls-1"><path id="Path_1299" data-name="Path 1299" class="cls-2" d="M381.84,72.41,324.76,71.1A6.47,6.47,0,0,0,318.44,66h-49.7a6.46,6.46,0,0,0-6,4L250,100.52a6.47,6.47,0,0,0-.5,2.49v40.38h4.07V104.16l67.07-.5-.22,39.87h4.07l.17-30.22,61.8-.48-.47,31,4.07.07L391,81.93A9.41,9.41,0,0,0,381.84,72.41ZM320.66,99.58l-66.06.49,12-28.59A2.35,2.35,0,0,1,268.74,70h49.7a2.38,2.38,0,0,1,2.38,2.37Zm4,9.66.2-34,56.87,1.29a5.34,5.34,0,0,1,5.19,5.39l-.42,26.88Z"/><path id="Path_1300" data-name="Path 1300" class="cls-2" d="M539.78,70.54a3.08,3.08,0,0,0-2.91-2.8L523.56,67l7.17,28.64,11.47.74Z"/><path id="Path_1301" data-name="Path 1301" class="cls-2" d="M546.48,98.28,546.07,94l-.3-3.19-2.26-24.09a3.09,3.09,0,0,0-2.91-2.8l-18.08-1-4.11-.23-5.67-.32-29.42-1.65-4.78-.27L473,60.08l-6-.34-5.44-.31L436.9,58.05a6,6,0,0,0-6.27,5.62,5.61,5.61,0,0,0,0,.71l1.74,27.05-2,33.43v.07l4.06.24,0-.31,1.9-31.27,23.23,1.51,6,.38,11.36.74,4.69.3L519.27,99l7,.46,5.52.35,10.52.68-.72,11.6-.57,9.06-.53,8.53,4.07.2L545,122l.61-9.7.84-13.49A3.84,3.84,0,0,0,546.48,98.28Zm-15.74-2.66-5.37-.34-6.84-.44-36.76-2.39-4.69-.3-10.71-.7-6-.38-24.07-1.56L435,68.71a6,6,0,0,1,5.56-6.33q.36,0,.72,0l18.81,1,6,.34,6,.34,6.35.35,4.66.26,30.37,1.7,5.82.33,4.27.24,13.31.75a3.08,3.08,0,0,1,2.91,2.8l2.42,25.83Z"/><path id="Path_1302" data-name="Path 1302" class="cls-2" d="M542.2,96.37l-11.47-.75-5.36-.34-6.84-.45-36.76-2.38-4.69-.31-10.72-.69-6-.38-24.06-1.56L435,68.71a6,6,0,0,1,5.56-6.33q.36,0,.72,0l18.81,1.06,6,.33,6,.34,6.34.35,4.67.26,30.37,1.71,5.82.32,4.27.24,13.31.75a3.09,3.09,0,0,1,2.91,2.8Z"/><path id="Path_1303" data-name="Path 1303" class="cls-2" d="M479.13,245l.61-36.47a4.45,4.45,0,0,1,1.4-3.16l97-91.54a9.34,9.34,0,0,1,6.44-2.56h9.77a9.27,9.27,0,0,1,5.45,1.78.08.08,0,0,0,.11,0v0a8.09,8.09,0,0,1,5-5.49l26.25-9.8a8.07,8.07,0,0,1,10.39,4.74,7.88,7.88,0,0,1,.51,3c-.6,22-1.18,47.4-1.21,49.13a.08.08,0,0,1-.07.08h0l-4.12-.17a.07.07,0,0,1-.07-.07c0-1.92,1-35.26,1.4-49.07a4,4,0,0,0-3.88-4.11,3.91,3.91,0,0,0-1.51.26l-26.26,9.8a4,4,0,0,0-2.58,3.38l-.28,3.08-.18,0a9.15,9.15,0,0,1,.45,2.65l.76,32.57.16,6.9a.07.07,0,0,1-.07.07h0l-4-.24a.09.09,0,0,1-.08-.08l-.13-6.85-.65-32.29a5.34,5.34,0,0,0-5.3-5.18h-9.78a5.28,5.28,0,0,0-3.63,1.45l-9.1,8.59a.08.08,0,0,0,0,0l-.35,33.45-.11,10.74-.09,9,0,4.2-.06,5.77s0,0,0,.06l-2.39,2.21-.86.8,0,0H551.1a.08.08,0,0,1-.08-.07.06.06,0,0,1,0-.06l9.45-8.71,0,0h6.33a.07.07,0,0,0,.07-.07l.06-4.13.11-9,.15-10.84.4-29.26a.08.08,0,0,0-.07-.08l-.06,0-16.23,15.32-66.13,62.42a4.49,4.49,0,0,0-1.4,3.16l-.52,30.9a.14.14,0,0,1,0,.06"/><line id="Line_532" data-name="Line 532" class="cls-2" x1="566.96" y1="182.85" x2="566.84" y2="191.59"/><path id="Path_1304" data-name="Path 1304" class="cls-2" d="M482.81,268.2v0l-4.07-.07v-.1Z"/><path id="Path_1305" data-name="Path 1305" class="cls-2" d="M201.87,69.26l22.48-46.73a15.07,15.07,0,0,1,11.49-8.39L325.66,1.51,615,26l-.51,16.3L325.15,18.83l-57.73,9.31A37.11,37.11,0,0,0,238.6,51.69l-5.66,15Z"/><path id="Path_1306" data-name="Path 1306" class="cls-2" d="M232.94,66.71l-38.2,113.61L1.67,107,5.23,83.52Z"/><line id="Line_533" data-name="Line 533" class="cls-2" x1="51.93" y1="79.63" x2="49.5" y2="125.03"/><line id="Line_534" data-name="Line 534" class="cls-2" x1="224.78" y1="90.39" x2="50.95" y2="103.76"/><line id="Line_535" data-name="Line 535" class="cls-2" x1="209" y1="91.46" x2="188.62" y2="157.39"/><line id="Line_536" data-name="Line 536" class="cls-2" x1="200.98" y1="162.07" x2="50.14" y2="110.45"/><line id="Line_537" data-name="Line 537" class="cls-2" x1="50.68" y1="106.71" x2="206.96" y2="95.24"/><line id="Line_538" data-name="Line 538" class="cls-2" x1="80.31" y1="120.16" x2="202.73" y2="110.43"/><line id="Line_539" data-name="Line 539" class="cls-2" x1="127.17" y1="137.19" x2="195.75" y2="132.43"/><line id="Line_540" data-name="Line 540" class="cls-2" x1="135.44" y1="140.43" x2="194.62" y2="137.19"/><line id="Line_541" data-name="Line 541" class="cls-2" x1="53.55" y1="105.57" x2="95.71" y2="119.35"/><line id="Line_542" data-name="Line 542" class="cls-2" x1="151.65" y1="138.81" x2="191.38" y2="152.59"/><path id="Path_1307" data-name="Path 1307" class="cls-2" d="M78.44,78.3l.07,3a2.68,2.68,0,0,0,2.76,2.6h.06l4.37-.23A2.67,2.67,0,0,0,88.23,81l0-3.64"/><path id="Path_1308" data-name="Path 1308" class="cls-2" d="M152.84,73.05l.08,3a2.68,2.68,0,0,0,2.75,2.61h.07l4.36-.23a2.67,2.67,0,0,0,2.54-2.71l0-3.64"/><path id="Path_1309" data-name="Path 1309" class="cls-2" d="M6,108.47l5.51,12.19a7.39,7.39,0,0,0,6.4,4.33l17.38.31"/><line id="Line_543" data-name="Line 543" class="cls-2" x1="17.93" y1="113.35" x2="20.1" y2="124.92"/><path id="Path_1310" data-name="Path 1310" class="cls-2" d="M32.39,118.23l5.52,12.19a7.34,7.34,0,0,0,6.39,4.33l22.44-.43"/><line id="Line_544" data-name="Line 544" class="cls-2" x1="44.32" y1="123.11" x2="46.49" y2="134.68"/><path id="Path_1311" data-name="Path 1311" class="cls-2" d="M62.4,130.16l5.52,12.19a7.37,7.37,0,0,0,6.39,4.34l13.23-.41"/><line id="Line_545" data-name="Line 545" class="cls-2" x1="74.12" y1="134.49" x2="76.5" y2="146.61"/><path id="Path_1312" data-name="Path 1312" class="cls-2" d="M84.75,138.62l5.51,12.2a7.4,7.4,0,0,0,6.4,4.33l13.23-.41"/><line id="Line_546" data-name="Line 546" class="cls-2" x1="96.47" y1="142.96" x2="98.85" y2="155.07"/><path id="Path_1313" data-name="Path 1313" class="cls-2" d="M106.18,146.62l5.51,12.2a7.4,7.4,0,0,0,6.4,4.33l13.23-.41"/><line id="Line_547" data-name="Line 547" class="cls-2" x1="117.9" y1="150.96" x2="120.28" y2="163.07"/><path id="Path_1314" data-name="Path 1314" class="cls-2" d="M128.71,154.9l5.52,12.19a7.34,7.34,0,0,0,6.39,4.33l13.23-.4"/><line id="Line_548" data-name="Line 548" class="cls-2" x1="140.43" y1="159.23" x2="142.81" y2="171.35"/><path id="Path_1315" data-name="Path 1315" class="cls-2" d="M150.32,163.08l5.52,12.2a7.38,7.38,0,0,0,6.39,4.33l13.23-.4"/><line id="Line_549" data-name="Line 549" class="cls-2" x1="162.04" y1="167.42" x2="164.42" y2="179.53"/><path id="Path_1316" data-name="Path 1316" class="cls-2" d="M170.83,171.45l5.52,12.2a7.38,7.38,0,0,0,6.39,4.33l31.76.62"/><line id="Line_550" data-name="Line 550" class="cls-2" x1="182.55" y1="175.79" x2="184.93" y2="187.9"/><path id="Path_1317" data-name="Path 1317" class="cls-2" d="M245.21,143.4h87.66l87.75.59a3.88,3.88,0,0,1,3.86,3.77l.09,2.91-91.9-.8-83,.58a4,4,0,0,1-3.93-3.39Z"/><line id="Line_551" data-name="Line 551" class="cls-2" x1="403.96" y1="202.59" x2="338.42" y2="192.63"/><line id="Line_552" data-name="Line 552" class="cls-2" x1="319.87" y1="178.25" x2="309.84" y2="149.87"/><path id="Path_1318" data-name="Path 1318" class="cls-2" d="M394.88,150.68l9.49,56.55L410.26,266"/><path id="Path_1319" data-name="Path 1319" class="cls-2" d="M432.45,165.62v.81a1.62,1.62,0,0,1-1.62,1.62H409.62a1.61,1.61,0,0,1-1.61-1.62v-.81a1.61,1.61,0,0,1,1.61-1.61h21.21a1.62,1.62,0,0,1,1.62,1.6Z"/><path id="Path_1320" data-name="Path 1320" class="cls-2" d="M424,164q-1-6.91-2.06-13.54"/><path id="Path_1321" data-name="Path 1321" class="cls-2" d="M429.78,208.94c-.69-6-1.44-12.17-2.22-18.43"/><path id="Path_1322" data-name="Path 1322" class="cls-2" d="M432.75,236c.77,7.33,1.4,13.7,1.88,18.65"/><path id="Path_1323" data-name="Path 1323" class="cls-2" d="M435,258.66c.44,4.55.67,7.15.67,7.15"/><path id="Path_1324" data-name="Path 1324" class="cls-2" d="M430.24,213c.77,6.7,1.46,13.09,2.09,19"/><path id="Path_1325" data-name="Path 1325" class="cls-2" d="M427,186.47c-.78-6.14-1.61-12.33-2.47-18.42"/><path id="Rectangle_422" data-name="Rectangle 422" class="cls-2" d="M413.79,186.47h20.4a2,2,0,0,1,2,2h0a2,2,0,0,1-2,2h-20.4a2,2,0,0,1-2-2h0A2,2,0,0,1,413.79,186.47Z"/><path id="Rectangle_423" data-name="Rectangle 423" class="cls-2" d="M415.73,208.94h20.39a2,2,0,0,1,2,2h0a2,2,0,0,1-2,2H415.73a2,2,0,0,1-2-2h0A2,2,0,0,1,415.73,208.94Z"/><path id="Path_1326" data-name="Path 1326" class="cls-2" d="M441.58,233.56v.8A1.62,1.62,0,0,1,440,236H418.76a1.62,1.62,0,0,1-1.62-1.62v-.8a1.62,1.62,0,0,1,1.62-1.62H440a1.61,1.61,0,0,1,1.61,1.61Z"/><path id="Path_1327" data-name="Path 1327" class="cls-2" d="M443,256.24v.81a1.62,1.62,0,0,1-1.61,1.62H420.15a1.62,1.62,0,0,1-1.61-1.62v-.81a1.61,1.61,0,0,1,1.61-1.61h21.22a1.59,1.59,0,0,1,1.61,1.6Z"/><path id="Path_1328" data-name="Path 1328" class="cls-2" d="M157.37,177.81l-2.64,26,4,.25,2.52-24.45"/><line id="Line_553" data-name="Line 553" class="cls-2" x1="159.14" y1="202.52" x2="207.42" y2="204.92"/><path id="Path_1329" data-name="Path 1329" class="cls-2" d="M245.37,145H227.72L204.9,214l5.55,1.89,25.34-60.51,28.36-.13,1.39-4.91"/><path id="Path_1330" data-name="Path 1330" class="cls-2" d="M154.73,203.78v37.59H204.9"/><path id="Path_1331" data-name="Path 1331" class="cls-2" d="M204.9,214l-2.69,75.78,31,1.22"/><path id="Path_1332" data-name="Path 1332" class="cls-2" d="M116.8,257.39c0,2.75-1.31,5-2.93,5s-2.93-2.24-2.93-5,1.31-5,2.93-5S116.8,254.63,116.8,257.39Z"/><path id="Path_1333" data-name="Path 1333" class="cls-2" d="M116.8,257.39c0,2.75-1.31,5-2.93,5s-2.93-2.24-2.93-5,1.31-5,2.93-5S116.8,254.63,116.8,257.39Z"/><path id="Path_1334" data-name="Path 1334" class="cls-2" d="M116.8,257.39c0,2.75-1.31,5-2.93,5s-2.93-2.24-2.93-5,1.31-5,2.93-5S116.8,254.63,116.8,257.39Z"/><path id="Path_1335" data-name="Path 1335" class="cls-2" d="M113.87,252.39c1.62,0,2.93,2.24,2.93,5s-1.31,5-2.93,5-2.93-2.24-2.93-5S112.25,252.39,113.87,252.39Z"/><path id="Path_1336" data-name="Path 1336" class="cls-2" d="M107.39,277.69a30.58,30.58,0,0,0,6.91,11.44,12.25,12.25,0,0,1-8.36,3.69C95.5,292.82,87,276.76,87,257s8.46-35.87,18.9-35.87a12.38,12.38,0,0,1,8.59,3.91c-3,2.8-5.53,7-7.37,12.27-4.47,3.85-5.44,11.42-5.44,20.13S102.79,273.91,107.39,277.69Z"/><path id="Path_1337" data-name="Path 1337" class="cls-2" d="M122.31,239c-2.36-2.8-5.28-4.45-8.44-4.45a10.31,10.31,0,0,0-6.71,2.69c-4.47,3.84-5.44,11.42-5.44,20.13s1.07,16.52,5.66,20.3a10.14,10.14,0,0,0,6.49,2.5,10.92,10.92,0,0,0,8-3.94,61.07,61.07,0,0,0,3-19.3A61.82,61.82,0,0,0,122.31,239Zm-8.44,23.36c-1.62,0-2.93-2.24-2.93-5s1.31-5,2.93-5,2.93,2.24,2.93,5-1.31,5-2.93,5Z"/><path id="Path_1338" data-name="Path 1338" class="cls-2" d="M113.87,262.38c-1.62,0-2.93-2.24-2.93-5s1.31-5,2.93-5,2.93,2.23,2.93,5S115.49,262.38,113.87,262.38Z"/><path id="Path_1339" data-name="Path 1339" class="cls-2" d="M122.31,239c-2.36-2.8-5.28-4.45-8.44-4.45a10.31,10.31,0,0,0-6.71,2.69c1.84-5.22,4.38-9.47,7.37-12.27C117.78,228.14,120.49,233,122.31,239Z"/><path id="Path_1340" data-name="Path 1340" class="cls-2" d="M126.6,247.21c-1.32-10.2-4.7-18.87-9.23-24.36-3.31-4-7.23-6.3-11.43-6.3-11.76,0-21.29,18.09-21.29,40.4s9.53,40.41,21.29,40.41c4.1,0,7.94-2.21,11.19-6,4.42-5.19,7.76-13.38,9.25-23.07h0a76.11,76.11,0,0,0,.22-21Zm-12.3,41.92a12.25,12.25,0,0,1-8.36,3.69C95.5,292.82,87,276.76,87,257s8.46-35.87,18.9-35.87a12.38,12.38,0,0,1,8.59,3.91c3.25,3.16,6,8,7.78,14A61.82,61.82,0,0,1,124.84,257a60.79,60.79,0,0,1-3,19.3C120,281.75,117.4,286.22,114.3,289.13Z"/><path id="Path_1341" data-name="Path 1341" class="cls-2" d="M121.87,276.24c-1.85,5.51-4.47,10-7.57,12.89a30.66,30.66,0,0,1-6.91-11.44,10.11,10.11,0,0,0,6.48,2.5A10.88,10.88,0,0,0,121.87,276.24Z"/><path id="Path_1342" data-name="Path 1342" class="cls-2" d="M117.13,291.33c4.42-5.19,7.76-13.37,9.25-23.06h0a76.11,76.11,0,0,0,.22-21c-1.32-10.19-4.7-18.87-9.23-24.36"/><ellipse id="Ellipse_234" data-name="Ellipse 234" class="cls-2" cx="108.77" cy="257.39" rx="41.69" ry="77.35"/><path id="Path_1343" data-name="Path 1343" class="cls-2" d="M179.86,241.57a144.05,144.05,0,0,1,.87,15.82c0,42.72-18.67,77.35-41.69,77.35H108.77"/><path id="Path_1344" data-name="Path 1344" class="cls-2" d="M108.77,180c14.24.25,30.27,0,30.27,0,6.18,0,12,2.49,17.31,7"/><path id="Path_1345" data-name="Path 1345" class="cls-2" d="M276.86,284.81a34,34,0,0,0,7.63,12.63,13.52,13.52,0,0,1-9.23,4.08c-11.53,0-20.88-17.74-20.88-39.63s9.35-39.61,20.88-39.61c3.42,0,6.64,1.56,9.49,4.31-3.3,3.1-6.11,7.8-8.14,13.56-4.94,4.25-6,12.61-6,22.23S271.79,280.63,276.86,284.81Z"/><path id="Path_1346" data-name="Path 1346" class="cls-2" d="M293.34,242.1c-2.6-3.09-5.83-4.92-9.32-4.92a11.35,11.35,0,0,0-7.4,3c-4.94,4.25-6,12.61-6,22.23s1.19,18.25,6.26,22.42a11.22,11.22,0,0,0,7.17,2.77c3.27,0,6.31-1.61,8.83-4.36a67.39,67.39,0,0,0,3.28-21.32A68.3,68.3,0,0,0,293.34,242.1ZM284,267.89c-1.79,0-3.24-2.47-3.24-5.51s1.45-5.52,3.24-5.52,3.24,2.47,3.24,5.52-1.45,5.51-3.24,5.51Z"/><path id="Path_1347" data-name="Path 1347" class="cls-2" d="M298.08,251.14c-1.46-11.26-5.18-20.84-10.2-26.9-3.64-4.42-8-7-12.62-7-13,0-23.51,20-23.51,44.62s10.53,44.63,23.51,44.63c4.53,0,8.77-2.43,12.36-6.65,4.88-5.73,8.58-14.77,10.22-25.47v0a83.75,83.75,0,0,0,.24-23.24Zm-13.58,46.3a13.54,13.54,0,0,1-9.24,4.08c-11.52,0-20.87-17.74-20.87-39.63s9.34-39.61,20.87-39.61c3.42,0,6.64,1.56,9.49,4.31,3.59,3.49,6.58,8.89,8.59,15.51a68.3,68.3,0,0,1,2.8,19.79,67.34,67.34,0,0,1-3.28,21.32C290.81,289.28,287.92,294.23,284.5,297.44Z"/><path id="Path_1348" data-name="Path 1348" class="cls-2" d="M292.86,283.21c-2.05,6.07-4.94,11-8.36,14.23a33.92,33.92,0,0,1-7.64-12.63,11.26,11.26,0,0,0,7.17,2.76C287.3,287.57,290.34,286,292.86,283.21Z"/><path id="Path_1349" data-name="Path 1349" class="cls-2" d="M287.62,299.87c4.88-5.73,8.58-14.77,10.22-25.47v0a83.75,83.75,0,0,0,.24-23.24c-1.46-11.26-5.18-20.84-10.2-26.9"/><ellipse id="Ellipse_235" data-name="Ellipse 235" class="cls-2" cx="278.39" cy="262.38" rx="46.04" ry="85.43"/><path id="Path_1351" data-name="Path 1351" class="cls-2" d="M567.74,204c10.57,13.81,17.47,36.56,17.47,62.28,0,42.1-18.5,76.24-41.31,76.24H501c-15.05,0-28.22-14.86-35.44-37.05"/><path id="Path_1352" data-name="Path 1352" class="cls-2" d="M338.42,192.63l-9.8-1.49a7.47,7.47,0,0,1-5.93-4.91l-2.82-8"/><path id="Path_1353" data-name="Path 1353" class="cls-2" d="M338.42,192.63c11.77,15.47,19.45,41,19.45,69.75,0,47.18-20.62,85.43-46.05,85.43H278.39"/><path id="Path_1354" data-name="Path 1354" class="cls-2" d="M278.39,177c15.72.28,33.43,0,33.43,0a25.6,25.6,0,0,1,8.05,1.3"/><path id="Path_1355" data-name="Path 1355" class="cls-2" d="M151.48,330.89h34.61s29.79-7.38,34-40.57"/><line id="Line_554" data-name="Line 554" class="cls-2" x1="248.6" y1="36.96" x2="468.12" y2="54.86"/><path id="Path_1356" data-name="Path 1356" class="cls-2" d="M544.54,129.84l5.49.26a4.59,4.59,0,0,1,4.22,3.47l.62,2.46"/><path id="Path_1357" data-name="Path 1357" class="cls-2" d="M540.47,129.64l-98.74-4.78H427.59a8.56,8.56,0,0,0-8.56,8.56v9.82"/><path id="Path_1358" data-name="Path 1358" class="cls-2" d="M424.62,149l16-15.13s-4.14-6,2.7-9.37"/><line id="Line_555" data-name="Line 555" class="cls-2" x1="440.65" y1="133.87" x2="552.16" y2="138.19"/><line id="Line_556" data-name="Line 556" class="cls-2" x1="442.63" y1="133.87" x2="443.71" y2="266.46"/><path id="Path_1359" data-name="Path 1359" class="cls-2" d="M466.46,256.37,451,255.75a2.69,2.69,0,0,1-2.58-2.7l.69-107.83a2.68,2.68,0,0,1,2.7-2.66h0l30.43.5"/><path id="Path_1360" data-name="Path 1360" class="cls-2" d="M481.86,135.6l.66,7.58a2.87,2.87,0,0,0,2.79,2.61l31,.62a2.85,2.85,0,0,0,2.9-2.63l.52-6.86"/><line id="Line_557" data-name="Line 557" class="cls-2" x1="518.87" y1="144.56" x2="544.42" y2="145.29"/><line id="Line_558" data-name="Line 558" class="cls-2" x1="551.32" y1="144.41" x2="551.32" y2="179.51"/><path id="Path_1361" data-name="Path 1361" class="cls-2" d="M194.74,180.32l10.33,1L238.26,72.13l-5.32-5.42L254,67a6.19,6.19,0,0,1,4.62,2.17l3.07,3.61-23.4-.64"/><line id="Line_559" data-name="Line 559" class="cls-2" x1="205.07" y1="181.28" x2="215.28" y2="182.34"/><line id="Line_560" data-name="Line 560" class="cls-2" x1="232.51" y1="91.92" x2="253.79" y2="91.92"/><line id="Line_561" data-name="Line 561" class="cls-2" x1="225.15" y1="90.87" x2="232.5" y2="92"/><path id="Path_1362" data-name="Path 1362" class="cls-2" d="M224.11,119.05l.31.87a4,4,0,0,0,3.68,2.65l14.93.22a4,4,0,0,0,3.3-1.69l3.22-4.6"/><line id="Line_562" data-name="Line 562" class="cls-2" x1="243.03" y1="122.79" x2="236.27" y2="144.87"/><line id="Line_563" data-name="Line 563" class="cls-2" x1="251.61" y1="150.57" x2="251.7" y2="155.42"/><g id="Group_671" data-name="Group 671"><path id="Path_1363" data-name="Path 1363" class="cls-2" d="M361.52,187l-24.65-2.32a3.64,3.64,0,0,1-3.23-3.53v-4.66a2.9,2.9,0,0,1,2.85-2.94l.38,0,24.65,2.33a4.89,4.89,0,0,1,4.34,4.76V183a3.9,3.9,0,0,1-3.83,4A4.36,4.36,0,0,1,361.52,187Z"/><line id="Line_564" data-name="Line 564" class="cls-2" x1="343.6" y1="174.26" x2="343.6" y2="185.21"/><line id="Line_565" data-name="Line 565" class="cls-2" x1="355.07" y1="175.27" x2="355.07" y2="186.36"/><path id="Path_1364" data-name="Path 1364" class="cls-2" d="M357.62,172.29l-5.47-.52a3.81,3.81,0,0,1-3.38-3.69v-2.55a3,3,0,0,1,3-3.07,1.82,1.82,0,0,1,.4,0l5.47.51a3.8,3.8,0,0,1,3.37,3.69v2.55a3,3,0,0,1-3,3.08Z"/></g><path id="Path_1365" data-name="Path 1365" class="cls-2" d="M466.67,277.36v22.91A7.71,7.71,0,0,1,459,308H441.12a7.7,7.7,0,0,1-7.69-7.7V275.93"/><path id="Path_1366" data-name="Path 1366" class="cls-2" d="M438,276.1v24.17a3.11,3.11,0,0,0,3.11,3.11H459a3.12,3.12,0,0,0,3.12-3.11V277.15"/><path id="Path_1367" data-name="Path 1367" class="cls-2" d="M604.41,169.88,567.09,204,485.86,278.2l-69.8-3V266l38.47,1.29,24.21.81v.1l4.07.07v0l2.15.07,10.76-9.94,4.55-4.2,9.19-8.49,4.55-4.2L524.2,232l4.55-4.21,8.38-7.74,4.55-4.2,8.59-7.93,4.55-4.21,8.48-7.83,4.55-4.2.89-.83,2.41-2.23,6.28-5.8,4.55-4.2,9.49-8.76Z"/><path id="Path_1368" data-name="Path 1368" class="cls-2" d="M482.81,268.2v0l-4.07-.07v-.1Z"/><line id="Line_566" data-name="Line 566" class="cls-2" x1="484.76" y1="268.27" x2="485.46" y2="278.2"/><path id="Path_1369" data-name="Path 1369" class="cls-2" d="M604.41,169.88l13.72-.19v-9.21l-28.21-1L575.36,159l-3.91-.13"/><path id="Path_1370" data-name="Path 1370" class="cls-2" d="M567.13,169.59l-12-.14.23-11.1,11.95.41"/><line id="Line_567" data-name="Line 567" class="cls-2" x1="591.47" y1="169.88" x2="571.35" y2="169.64"/><line id="Line_568" data-name="Line 568" class="cls-2" x1="589.92" y1="159.3" x2="590.04" y2="169.69"/><path id="Path_1371" data-name="Path 1371" class="cls-2" d="M604.46,153l39,1.86a1.56,1.56,0,0,1,1.48,1.54V160a1.54,1.54,0,0,1-1.56,1.54h-.06l-25.17-1"/><path id="Path_1372" data-name="Path 1372" class="cls-2" d="M600.28,152.83l-22-1a2.74,2.74,0,0,0-2.88,2.61v4.78"/><line id="Line_569" data-name="Line 569" class="cls-2" x1="333.24" y1="143.46" x2="333.24" y2="149.68"/><path id="Path_1373" data-name="Path 1373" class="cls-2" d="M483.27,241.27l-.22,12.85v.07l-.07,4.13-.17,9.87-4.07-.13.16-9.74V258l.06-3.89.15-9.1"/><path id="Path_1374" data-name="Path 1374" class="cls-2" d="M483.27,241.27l79.25-71.62.25,9.1"/><path id="Path_1375" data-name="Path 1375" class="cls-2" d="M479.13,245l-24.6,22.23,0,0"/><line id="Line_570" data-name="Line 570" class="cls-2" x1="533.28" y1="207.94" x2="524.66" y2="215.87"/><line id="Line_571" data-name="Line 571" class="cls-2" x1="546.35" y1="195.9" x2="537.84" y2="203.74"/><line id="Line_572" data-name="Line 572" class="cls-2" x1="507.13" y1="232.02" x2="496.91" y2="241.43"/><path id="Path_1376" data-name="Path 1376" class="cls-2" d="M468.51,267.59l10.06-9.27.34-.31"/><path id="Path_1377" data-name="Path 1377" class="cls-2" d="M483.05,254.2l.08-.08,9.22-8.48"/><line id="Line_573" data-name="Line 573" class="cls-2" x1="520.1" y1="220.08" x2="511.69" y2="227.82"/><path id="Path_1378" data-name="Path 1378" class="cls-2" d="M475.75,254.12H479l-.06,3.89v.31h-5a1.17,1.17,0,0,1-1.17-1.17,3,3,0,0,1,3-3Z"/><path id="Path_1379" data-name="Path 1379" class="cls-2" d="M500.27,254.12l-4.55,4.2H483l.07-4.12v-.08Z"/><path id="Path_1380" data-name="Path 1380" class="cls-2" d="M514,241.43l-4.55,4.2H488.51a1.16,1.16,0,0,1-1.16-1.17,3,3,0,0,1,3-3Z"/><path id="Path_1381" data-name="Path 1381" class="cls-2" d="M528.75,227.82,524.2,232H502a1.17,1.17,0,0,1-1.17-1.17h0a3,3,0,0,1,3-3h24.86Z"/><path id="Path_1382" data-name="Path 1382" class="cls-2" d="M541.68,215.87l-4.55,4.21H516.21A1.19,1.19,0,0,1,515,218.9a3,3,0,0,1,3-3h23.61Z"/><path id="Path_1383" data-name="Path 1383" class="cls-2" d="M554.82,203.74l-4.55,4.2H529.82a1.17,1.17,0,0,1-1.17-1.16h0a3,3,0,0,1,3-3Z"/><path id="Path_1384" data-name="Path 1384" class="cls-2" d="M567.85,191.7l-4.55,4.2h-21a1.17,1.17,0,0,1-1.17-1.17,3,3,0,0,1,3-3Z"/><path id="Path_1385" data-name="Path 1385" class="cls-2" d="M567,178.64l-.06,4.21H557a1.18,1.18,0,0,1-1.17-1.17h0a3,3,0,0,1,3-3H567Z"/><path id="Path_1386" data-name="Path 1386" class="cls-2" d="M582,178.64l-4.55,4.21h-6.22l0-4.21Z"/><line id="Line_574" data-name="Line 574" class="cls-2" x1="497.94" y1="266.97" x2="518.08" y2="266.97"/><path id="Path_1387" data-name="Path 1387" class="cls-2" d="M509.35,256.84h41.37a3,3,0,0,1,3,3v6.61"/><line id="Line_575" data-name="Line 575" class="cls-2" x1="552.71" y1="216.94" x2="552.71" y2="257.86"/><line id="Line_576" data-name="Line 576" class="cls-2" x1="551.94" y1="203.6" x2="551.94" y2="195.91"/><ellipse id="Ellipse_236" data-name="Ellipse 236" class="cls-2" cx="522.12" cy="273.7" rx="3.4" ry="3.78"/><ellipse id="Ellipse_237" data-name="Ellipse 237" class="cls-2" cx="574.32" cy="253.05" rx="3.01" ry="2.37"/><rect id="Rectangle_424" data-name="Rectangle 424" class="cls-2" x="560.54" y="247.47" width="19.75" height="13.6" rx="6.12"/><path id="Rectangle_425" data-name="Rectangle 425" class="cls-2" d="M518,265h2.54A10.93,10.93,0,0,1,531.42,276h0v.34a10.92,10.92,0,0,1-10.93,10.92H518V265Z"/><path id="Path_1388" data-name="Path 1388" class="cls-2" d="M525.52,287.24h21.93a7.45,7.45,0,0,0,7.44-7.44v-7.32a7.44,7.44,0,0,0-7.44-7.44h-1.79v7.44a3,3,0,0,1-2.95,2.95H541a3,3,0,0,1-2.95-2.95v-7.43H525.52"/><line id="Line_577" data-name="Line 577" class="cls-2" x1="538.22" y1="266.84" x2="545.53" y2="266.84"/><line id="Line_578" data-name="Line 578" class="cls-2" x1="517.69" y1="283.13" x2="514.23" y2="283.13"/><path id="Path_1389" data-name="Path 1389" class="cls-2" d="M513.72,266.84v17.32h-47"/><path id="Path_1390" data-name="Path 1390" class="cls-2" d="M462,284.29H438.16"/><path id="Path_1391" data-name="Path 1391" class="cls-2" d="M433.29,284.16h-26.1A4.17,4.17,0,0,1,403,280v-9.75a4.17,4.17,0,0,1,4.17-4.17H416"/><path id="Path_1392" data-name="Path 1392" class="cls-2" d="M418.39,275.39v3.29a1.41,1.41,0,0,0,1.41,1.41h13.7"/><ellipse id="Ellipse_238" data-name="Ellipse 238" class="cls-2" cx="435.53" cy="271.33" rx="1.26" ry="1.47"/><ellipse id="Ellipse_239" data-name="Ellipse 239" class="cls-2" cx="464.35" cy="272.68" rx="1.26" ry="1.47"/><line id="Line_579" data-name="Line 579" class="cls-2" x1="566.58" y1="204.49" x2="572.77" y2="247.58"/><line id="Line_580" data-name="Line 580" class="cls-2" x1="575.11" y1="260.99" x2="576.22" y2="267.02"/><path id="Path_1393" data-name="Path 1393" class="cls-2" d="M552.1,266.6l26.52.17a3.38,3.38,0,0,1,3.38,3.38v11.94a3.38,3.38,0,0,1-3.38,3.38H552.31"/><rect id="Rectangle_426" data-name="Rectangle 426" class="cls-2" x="562.86" y="271.5" width="17.18" height="9.38" rx="2.53"/><line id="Line_581" data-name="Line 581" class="cls-2" x1="574.1" y1="271.71" x2="574.66" y2="281.09"/><path id="Path_1394" data-name="Path 1394" class="cls-2" d="M567.83,205.07l52.94-3.64v-8.75h-41.3"/><line id="Line_582" data-name="Line 582" class="cls-2" x1="593.35" y1="192.76" x2="593.35" y2="203.5"/><line id="Line_583" data-name="Line 583" class="cls-2" x1="611.77" y1="169.63" x2="613.01" y2="192.51"/><path id="Path_1395" data-name="Path 1395" class="cls-2" d="M611.93,173l3.76.33a1,1,0,0,1,.93,1l.37,5.51a1,1,0,0,1-.9,1.08l-3.57.39"/><path id="Path_1396" data-name="Path 1396" class="cls-2" d="M612.43,182.82l3.75.34a1,1,0,0,1,.93.94l.37,5.51a1,1,0,0,1-.9,1.08l-3.57.39"/><line id="Line_584" data-name="Line 584" class="cls-2" x1="615.36" y1="169.77" x2="615.61" y2="173.3"/><line id="Line_585" data-name="Line 585" class="cls-2" x1="616.02" y1="180.89" x2="616.27" y2="183.26"/><line id="Line_586" data-name="Line 586" class="cls-2" x1="616.59" y1="190.61" x2="616.76" y2="192.61"/><line id="Line_587" data-name="Line 587" class="cls-2" x1="603.78" y1="129.87" x2="637.14" y2="130.22"/><line id="Line_588" data-name="Line 588" class="cls-2" x1="604.14" y1="134.39" x2="637" y2="134.68"/><line id="Line_589" data-name="Line 589" class="cls-2" x1="605.76" y1="111.64" x2="609.51" y2="129.87"/><line id="Line_590" data-name="Line 590" class="cls-2" x1="610.43" y1="134.25" x2="613.25" y2="153.19"/><path id="Path_1397" data-name="Path 1397" class="cls-2" d="M545,122c14.78,2.89,38.68,5.88,62.27,1.61"/><path id="Path_1398" data-name="Path 1398" class="cls-2" d="M604.87,107.54l-9.18-49.3a5,5,0,0,0-4.63-4L523,51a4.61,4.61,0,0,0-.74,0,5.47,5.47,0,0,0-5,5.94,5,5,0,0,0,.1.66l1.06,5"/><path id="Path_1399" data-name="Path 1399" class="cls-2" d="M526.25,99.41l3.07,14.42A7.71,7.71,0,0,0,535,119.7c1.64.42,3.67.9,6,1.42"/><line id="Line_591" data-name="Line 591" class="cls-2" x1="525.37" y1="95.28" x2="519.29" y2="66.75"/><path id="Path_1400" data-name="Path 1400" class="cls-2" d="M542.2,96.37l-11.47-.75L523.56,67l13.31.75a3.08,3.08,0,0,1,2.91,2.8Z"/><path id="Path_1401" data-name="Path 1401" class="cls-2" d="M522.52,62.85l-.12-.49a2.84,2.84,0,0,1,2.07-3.45,2.89,2.89,0,0,1,.83-.08L589.72,62a2.85,2.85,0,0,1,2.66,2.36l8,46.8"/><path id="Path_1402" data-name="Path 1402" class="cls-2" d="M531.77,99.77l2.49,9.9a2.82,2.82,0,0,0,2.61,2.15l4.7.23"/><line id="Line_592" data-name="Line 592" class="cls-2" x1="578.12" y1="113.85" x2="545.64" y2="112.25"/><path id="Path_1403" data-name="Path 1403" class="cls-2" d="M544,71.3h7.33a2.38,2.38,0,0,1,2.39,2.34L554,88.26a2.39,2.39,0,0,1-2.35,2.43h0l-5.9.07"/><path id="Path_1404" data-name="Path 1404" class="cls-2" d="M559.14,73.38l.08,15.15a2.38,2.38,0,0,0,2.35,2.37l27.14.36a2.39,2.39,0,0,0,2.42-2.36,3,3,0,0,0,0-.42l-2.6-15.42a2.37,2.37,0,0,0-2.34-2L561.53,71a2.37,2.37,0,0,0-2.39,2.37Z"/><path id="Path_1405" data-name="Path 1405" class="cls-2" d="M546,94l4.8.15a2.37,2.37,0,0,1,2.3,2.29l.26,6.87a2.39,2.39,0,0,1-2.29,2.47H551l-4.83-.07"/><path id="Path_1406" data-name="Path 1406" class="cls-2" d="M558.89,97.86l-.06,5.07a2.66,2.66,0,0,0,2.6,2.68l14.79.34a2.67,2.67,0,0,1,2,1l1.21,1.44a2.64,2.64,0,0,0,2,1l9,.15a2.67,2.67,0,0,0,2.7-2.62,2.83,2.83,0,0,0,0-.41l-1.26-8.9a2.65,2.65,0,0,0-2.63-2.28H561.54A2.65,2.65,0,0,0,558.89,97.86Z"/><line id="Line_593" data-name="Line 593" class="cls-2" x1="459.56" y1="95.09" x2="455.44" y2="114.93"/><line id="Line_594" data-name="Line 594" class="cls-2" x1="466.08" y1="63.77" x2="460.4" y2="91.07"/><path id="Path_1407" data-name="Path 1407" class="cls-2" d="M466.92,59.74l.95-4.58c0-.1.05-.21.08-.31a3.62,3.62,0,0,1,3.39-2.58l50.88-1.21.75,0"/><path id="Path_1408" data-name="Path 1408" class="cls-2" d="M512.74,62.31l-29.41-1.66a4.33,4.33,0,0,1,4.26-3.59h20.6a4.31,4.31,0,0,1,4.25,3.56Z"/><path id="Path_1409" data-name="Path 1409" class="cls-2" d="M518.53,94.83l-36.76-2.38,1.33-27.73,30.38,1.7Z"/><path id="Path_1410" data-name="Path 1410" class="cls-2" d="M515.42,106.31H485.65a4.33,4.33,0,0,1-4.33-4.32,1.48,1.48,0,0,1,0-.21l.25-5.26L519.27,99l.41,2.27a4.34,4.34,0,0,1-3.51,5A4.76,4.76,0,0,1,515.42,106.31Z"/><path id="Path_1411" data-name="Path 1411" class="cls-2" d="M465.52,95.48l11.36.73-.35,7.19a2.9,2.9,0,0,1-3,2.76h0l-6.71-.35a2.9,2.9,0,0,1-2.74-3,2.2,2.2,0,0,1,0-.44Z"/><path id="Path_1412" data-name="Path 1412" class="cls-2" d="M478.44,64.46l-1.36,27.69-10.72-.7,5.73-27.34Z"/><path id="Path_1413" data-name="Path 1413" class="cls-2" d="M478.54,60.39,473,60.07a2.89,2.89,0,0,1,5.59.32Z"/><path id="Path_1414" data-name="Path 1414" class="cls-2" d="M529.69,115.25l-72.36-3.55-.68,3.38-21.42-1.52"/><path id="Path_1415" data-name="Path 1415" class="cls-2" d="M430.85,112.89l-27.17-.43a6.2,6.2,0,0,0-6.15,4.85l-2.1,9.41"/><line id="Line_595" data-name="Line 595" class="cls-2" x1="457.79" y1="111.86" x2="456.32" y2="125.8"/><line id="Line_596" data-name="Line 596" class="cls-2" x1="455.53" y1="115.29" x2="454.25" y2="125.31"/><line id="Line_597" data-name="Line 597" class="cls-2" x1="478.81" y1="112.74" x2="477.34" y2="126.69"/><line id="Line_598" data-name="Line 598" class="cls-2" x1="476.75" y1="112.84" x2="475.27" y2="126.2"/><line id="Line_599" data-name="Line 599" class="cls-2" x1="523.9" y1="114.9" x2="522.42" y2="128.85"/><line id="Line_600" data-name="Line 600" class="cls-2" x1="533.33" y1="119.12" x2="533.42" y2="129.44"/><line id="Line_601" data-name="Line 601" class="cls-2" x1="531.59" y1="117.75" x2="531.81" y2="129.38"/><line id="Line_602" data-name="Line 602" class="cls-2" x1="521.83" y1="115" x2="520.36" y2="128.36"/><line id="Line_603" data-name="Line 603" class="cls-2" x1="461.11" y1="86.76" x2="436.04" y2="83.34"/><path id="Path_1416" data-name="Path 1416" class="cls-2" d="M431.52,82.56c-1.24,0-41.27-3.89-41.27-3.89"/><path id="Path_1417" data-name="Path 1417" class="cls-2" d="M412.52,80.85S419.37,41.91,449.43,41l77.87-5.45"/><path id="Path_1418" data-name="Path 1418" class="cls-2" d="M461.47,59.47l1.46-4.18a10.37,10.37,0,0,1,9-6.91L582,39.57"/><line id="Line_604" data-name="Line 604" class="cls-2" x1="452.39" y1="85.36" x2="460.07" y2="63.45"/><path id="Path_1419" data-name="Path 1419" class="cls-2" d="M378.51,72.35l13.11-24.62A18,18,0,0,1,406,38.27l78.68-6.35"/><path id="Path_1420" data-name="Path 1420" class="cls-2" d="M339.29,71.66l17.32-27a21.24,21.24,0,0,1,15-9.59l56.47-7.87"/><path id="Path_1421" data-name="Path 1421" class="cls-2" d="M294.28,66.23l15.94-26.46a14.12,14.12,0,0,1,9.35-6.57l53.16-10.53"/><line id="Line_605" data-name="Line 605" class="cls-2" x1="326.1" y1="1.51" x2="325.92" y2="18.33"/><path id="Path_1422" data-name="Path 1422" class="cls-2" d="M324.6,135.81l50.49-.34a5.39,5.39,0,0,1,5.27,4.13l.95,4"/><path id="Path_1423" data-name="Path 1423" class="cls-2" d="M258.05,143.42l2.73-4.59a5.36,5.36,0,0,1,4.58-2.63l55.08-.36"/><path id="Path_1424" data-name="Path 1424" class="cls-2" d="M311.78,120.65l.13-1.78a6.67,6.67,0,0,1,5.75-6.14l2.86-.4"/><line id="Line_606" data-name="Line 606" class="cls-2" x1="311.36" y1="126.42" x2="310.67" y2="135.83"/><path id="Path_1425" data-name="Path 1425" class="cls-2" d="M316.7,124.6a2.88,2.88,0,0,1-2.82,2.28,2.76,2.76,0,0,1-.57-.06l-1.95-.4-1.14-.23a2.87,2.87,0,0,1,1-5.65l.16,0,.4.09,2.69.55A2.88,2.88,0,0,1,316.7,124.6Z"/><line id="Line_607" data-name="Line 607" class="cls-2" x1="210.55" y1="215.88" x2="239.89" y2="216.48"/><path id="Path_1426" data-name="Path 1426" class="cls-2" d="M289.44,176.87c.26-.34,3.38-6.57,5.67-11.16a8.07,8.07,0,0,1,7.84-4.46l11,.81"/><path id="Path_1427" data-name="Path 1427" class="cls-2" d="M387.88,297.06s-5.88,31.65-36.41,31.65H341.13"/><path id="Path_1428" data-name="Path 1428" class="cls-2" d="M353.85,295.63H371.5l.48,3.66,6.68.16.63-4,41.19,1.27L423,300.4h4.77l1.59-3.18,3.66-.16"/><path id="Path_1429" data-name="Path 1429" class="cls-2" d="M438.13,297.22l13.33.39a4.2,4.2,0,0,0,4.14-3l.65-2.6"/><path id="Path_1430" data-name="Path 1430" class="cls-2" d="M466.82,292.28l29.67.81s3.34-1.44,2.87-8.91"/><path id="Path_1431" data-name="Path 1431" class="cls-2" d="M438,291.5l24.21.65"/><path id="Path_1432" data-name="Path 1432" class="cls-2" d="M355,289.27c.77,0,41,1.08,78.35,2.1"/><path id="Path_1433" data-name="Path 1433" class="cls-2" d="M493.93,293s2.17,3.2,9.2,3.2a10.4,10.4,0,0,0,9.51-5.92"/><path id="Path_1434" data-name="Path 1434" class="cls-2" d="M509.14,284.26v3.45a2.38,2.38,0,0,0,2.31,2.38l1.52.05,1.15,1.79h34.32a5.24,5.24,0,0,0,4.92-3.42l1.16-3.1"/><path id="Path_1435" data-name="Path 1435" class="cls-2" d="M492.77,292.88s.43,9,16.22,9,14.76-9.78,14.76-9.78"/><path id="Path_1436" data-name="Path 1436" class="cls-2" d="M487.28,293.17s.55,12.41,20.88,12.41,19-13.47,19-13.47"/><path id="Path_1437" data-name="Path 1437" class="cls-2" d="M422,126.72c-.21-.51-31.53-.41-31.53-.41"/><path id="Path_1438" data-name="Path 1438" class="cls-2" d="M386.17,126.21s-7.42.71-10.37,9.15"/><path id="Path_1439" data-name="Path 1439" class="cls-2" d="M351.57,135.42s-6.25-17.69-5.73-17.69,35,1.1,35,1.1l3.9,7.74"/><path id="Path_1440" data-name="Path 1440" class="cls-2" d="M390.46,102.17c.68,0,16.62.9,24,1.32a4.53,4.53,0,0,1,4.22,3.85l.76,5.11"/><path id="Path_1441" data-name="Path 1441" class="cls-2" d="M401,102.82l.7-2.7a3.39,3.39,0,0,1,3.57-2.52l2.67.23a3.37,3.37,0,0,1,2.88,2.2l1.12,3"/><path id="Path_1442" data-name="Path 1442" class="cls-2" d="M577.15,220.92l15.67.1h0a6.54,6.54,0,0,0,6.54-6.54c0-.15,0-.29,0-.44l-.73-11,3.56-.24.73,11a10.1,10.1,0,0,1-9.4,10.75l-.68,0h-.06l-14.35-.09"/></g></g></g></svg>