<svg xmlns="http://www.w3.org/2000/svg" viewBox="0 0 362.95 158.73"><defs><style>.cls-1{opacity:0.6;}.cls-2{fill:none;stroke:#0094f9;stroke-miterlimit:10;stroke-width:1.24px;}</style></defs><g id="Layer_2" data-name="Layer 2"><g id="Layer_17" data-name="Layer 17"><g class="cls-1"><polygon class="cls-2" points="44.33 6.2 45.37 22.06 46.73 29.82 47.16 43.45 24.52 40.68 20.94 26.94 15.89 19.61 12.31 4.09 44.33 6.2"/><polyline class="cls-2" points="12.31 4.09 51.36 1.68 84.76 2.88 82.34 18.31 77.18 27.08 76.08 39.58 51.62 37.17 46.99 38.21"/><polyline class="cls-2" points="51.62 1.68 51.62 15.96 51.62 23.77 51.62 37.17"/><line class="cls-2" x1="45.35" y1="21.77" x2="15.89" y2="19.61"/><line class="cls-2" x1="20.94" y1="26.94" x2="46.73" y2="29.82"/><polyline class="cls-2" points="77.18 27.08 51.62 24.32 45.88 26.53"/><polyline class="cls-2" points="45.03 16.98 51.62 15.64 82.34 18.31"/><ellipse class="cls-2" cx="35.72" cy="55.94" rx="1.79" ry="1.36" transform="translate(-22.92 87.04) rotate(-85.38)"/><ellipse class="cls-2" cx="49.09" cy="58.05" rx="1.79" ry="1.36" transform="translate(-12.73 102.29) rotate(-85.38)"/><ellipse class="cls-2" cx="62.58" cy="59.84" rx="1.79" ry="1.36" transform="matrix(0.08, -1, 1, 0.08, -2.11, 117.39)"/><ellipse class="cls-2" cx="77.26" cy="62.24" rx="1.79" ry="1.36" transform="matrix(0.08, -1, 1, 0.08, 8.99, 134.22)"/><path class="cls-2" d="M13.57,55.78c1-2.6,2.86-4.34,5.15-4.34,3.54,0,6.69,4.14,7,9.25.25,3.77-1.09,7-3.23,8.45"/><ellipse class="cls-2" cx="7.4" cy="62.82" rx="1.47" ry="2.14" transform="translate(-7.92 1.45) rotate(-7.3)"/><path class="cls-2" d="M7.11,60.69l3.63-.44c.82,0,1.54,1,1.62,2.13S11.85,64.5,11,64.5l-3.38.44"/><path class="cls-2" d="M16,55.79a3.13,3.13,0,0,1,2.33-1.1c2.3,0,4.34,2.69,4.56,6a7.72,7.72,0,0,1-.5,3.41"/><path class="cls-2" d="M5.69,85.2,4.22,61.05s.32-4.92,6.14-4.35c0,0,5.75,0,6.32,6.9s1.41,24.09,1.41,24.09l5.68,1.09V94.4l-23.13-5L.9,84Z"/><line class="cls-2" x1="0.9" y1="83.98" x2="5.56" y2="83.02"/><polyline class="cls-2" points="23.39 88.7 29.33 87.63 29.33 93.31 23.77 94.4"/><path class="cls-2" d="M29.33,87.63l-5.56-1.22L22.36,64.06S22,55.89,16,55.75s-8.89,1.32-8.89,1.32"/><line class="cls-2" x1="22.67" y1="69.4" x2="66.94" y2="61.71"/><path class="cls-2" d="M19,51.46,80.8,60.21a13.76,13.76,0,0,0,11-2.55c5-4,47.06-36.14,47.06-36.14"/><path class="cls-2" d="M142.29,17.24,90.67,57s-3.28,2.88-9.54,2.27L20.38,50.79s-3.57-.6-4.59,1.72"/><path class="cls-2" d="M18.69,50.76l38.94-5.38a28.41,28.41,0,0,1,9.31,0l32.72,4.67"/><path class="cls-2" d="M86.65,60.11l33.52-5.88s5.16-1,7.81-3.47"/><ellipse class="cls-2" cx="135.23" cy="57.1" rx="8.13" ry="11.2" transform="translate(-8.01 25) rotate(-10.26)"/><path class="cls-2" d="M132.84,46.16a6.33,6.33,0,0,1,3.53-1.08c4.74,0,9,5.22,9.57,11.66s-2.86,11.65-7.61,11.65a6.78,6.78,0,0,1-1.62-.2"/><path class="cls-2" d="M130.36,56.87c-.33-3.93,1.4-7.22,4-8.09-3.31.11-5.66,3.79-5.28,8.32s3.45,8.33,6.84,8.33a4.44,4.44,0,0,0,1.41-.24h-.15C133.81,65.2,130.75,61.47,130.36,56.87Z"/><path class="cls-2" d="M141.37,57.1c-.39-4.61-3.45-8.34-6.84-8.34l-.15,0c-2.62.87-4.35,4.16-4,8.09.39,4.6,3.45,8.33,6.84,8.33h.15C140,64.31,141.7,61,141.37,57.1Z"/><ellipse class="cls-2" cx="132.61" cy="57.59" rx="2.08" ry="2.87" transform="translate(-8.14 24.54) rotate(-10.26)"/><path class="cls-2" d="M132.38,54.75l3.75-.61c1.15,0,2.2,1.27,2.33,2.84s-.7,2.84-1.86,2.84l-3.4.57"/><ellipse class="cls-2" cx="146.71" cy="27.25" rx="8.13" ry="11.2" transform="translate(-2.51 26.56) rotate(-10.26)"/><path class="cls-2" d="M144.31,16.31a6.36,6.36,0,0,1,3.53-1.08c4.75,0,9,5.22,9.57,11.66s-2.86,11.65-7.6,11.65a6.86,6.86,0,0,1-1.63-.2"/><path class="cls-2" d="M141.83,27c-.33-3.93,1.4-7.21,4-8.09-3.31.11-5.66,3.79-5.28,8.32s3.45,8.33,6.84,8.33a4.39,4.39,0,0,0,1.41-.24h-.15C145.28,35.35,142.22,31.62,141.83,27Z"/><path class="cls-2" d="M152.84,27.25c-.38-4.6-3.45-8.33-6.84-8.33h-.15c-2.62.88-4.35,4.16-4,8.09.39,4.6,3.45,8.33,6.84,8.33h.15C151.45,34.46,153.17,31.18,152.84,27.25Z"/><ellipse class="cls-2" cx="144.09" cy="27.74" rx="2.08" ry="2.87" transform="translate(-2.64 26.1) rotate(-10.26)"/><path class="cls-2" d="M143.85,24.9l3.75-.61c1.15,0,2.2,1.27,2.33,2.84s-.7,2.85-1.85,2.85l-3.4.56"/><path class="cls-2" d="M143.85,16.45s1.29-1.92,6.1-2.28l22.65-2.34"/><polygon class="cls-2" points="149.41 3.85 167.7 4.73 179.69 21.04 179.69 45.47 181.67 45.47 181.67 20.53 168.79 3.11 149.41 1.95 149.41 3.85"/><polyline class="cls-2" points="149.41 1.95 172.26 0.62 195.31 1.01 208.74 17.92 208.74 40.39 181.67 45.47"/><line class="cls-2" x1="181.67" y1="20.53" x2="208.74" y2="17.92"/><line class="cls-2" x1="168.79" y1="3.11" x2="195.31" y2="1.01"/><line class="cls-2" x1="134.77" y1="45.29" x2="151.86" y2="38.19"/><path class="cls-2" d="M138,45.29l35.66-5.8a10.36,10.36,0,0,1,6,.9"/><path class="cls-2" d="M139.42,68.3l39.66-8.94s5.45-1.54,5.19-9.35a10,10,0,0,0-.87-4.72"/><path class="cls-2" d="M184.53,45.08s3.25,10-2.86,13.2l-1,.28"/><path class="cls-2" d="M138.33,68.39l165.45,22.3s10.59,1.09,13.75,9.81-2.13,14.27-4.33,15.62"/><path class="cls-2" d="M140.72,67.92,304.55,89.8s10.85,1.12,14.09,10.06-2.18,14.62-4.43,16"/><path class="cls-2" d="M175.49,60.16,331.62,77.74s10.52,1.09,13.67,9.75S343.17,101.67,341,103l-27.45,14.77"/><path class="cls-2" d="M316.35,121.48l2.38-2.43,1.89-5.08.75-.4a22.2,22.2,0,0,1-1.72,7.38h3.5l-.47,4.19,18.61-11.32,1.14-3.15L342.1,109l2.33-5.09-.43-2.14-2.38.84"/><path class="cls-2" d="M343.38,106.15l6.81-1s4.37-.9,2.42,3.76l-3.42,8.28a5,5,0,0,1-4.76,2.19l-7.52-1.1"/><path class="cls-2" d="M341.29,113.82a1.64,1.64,0,0,1,.47,1.52l-20.24,12.58"/><ellipse class="cls-2" cx="318.11" cy="124.52" rx="1.46" ry="1.71" transform="translate(-14.04 204.39) rotate(-34.9)"/><path class="cls-2" d="M319.61,121.91l0,0a1.22,1.22,0,0,1,.71-.22,1.89,1.89,0,0,1,1.76,1.65,1.35,1.35,0,0,1-.79,1.52l0,0"/><line class="cls-2" x1="321.31" y1="124.85" x2="318.79" y2="126.07"/><line class="cls-2" x1="319.61" y1="121.91" x2="317.65" y2="122.9"/><polyline class="cls-2" points="312.84 121.91 318.33 121.02 319.79 121.02"/><path class="cls-2" d="M322.68,125.14,318,136.44s-1.35,1.28-5.34-.16"/><polygon class="cls-2" points="308.37 147.73 312.11 145.4 324.02 147.73 320.34 150.53 308.37 147.73"/><path class="cls-2" d="M324,147.73v7.47l-4,2.87L268.2,146.91l.29-7.24,4.26-2.3,7.36,1.14,1.17-27s-.7-12,9.58-11.21,18.15,3,18.21,11.68-.7,35.73-.7,35.73"/><path class="cls-2" d="M290.07,98.7a5.64,5.64,0,0,0-3.39,2.13"/><path class="cls-2" d="M312.11,145.4l1.58-32.59s.58-9.89-8.35-12.53c-6.24-1.85-11.74-2.51-15.27-1.58"/><ellipse class="cls-2" cx="293.1" cy="109.8" rx="3.28" ry="3.69" transform="translate(-19.87 113.34) rotate(-21.18)"/><path class="cls-2" d="M294.79,113.08l1.26-.49a2.5,2.5,0,0,0,.38-.15l0,0h0a3.39,3.39,0,0,0,1.68-3.28,3.83,3.83,0,0,0-3.6-3.64,2.94,2.94,0,0,0-1.26.28h0l-.82.4"/><path class="cls-2" d="M290.31,98.64c2.4-3.61,6.58-6.44,11.1-6.44,7.35,0,13.3,6.23,13.3,13.92a14.34,14.34,0,0,1-1,5.34"/><path class="cls-2" d="M295.17,98.28a9.44,9.44,0,0,1,6.24-2.37A9.87,9.87,0,0,1,311,104"/><path class="cls-2" d="M296.1,98.37a8.79,8.79,0,0,1,5.79-2.18,9.17,9.17,0,0,1,8.87,7.56"/><line class="cls-2" x1="320.05" y1="120.95" x2="342.1" y2="108.96"/><line class="cls-2" x1="323.15" y1="120.95" x2="342.43" y2="110.67"/><path class="cls-2" d="M349.17,105.34l.44-9.64s.46-9.47-5.69-10.94"/><path class="cls-2" d="M340.52,81.23s11.62.73,12.12,9.31l-.48,14.8"/><polyline class="cls-2" points="348.38 118.17 348.38 123.58 359.34 125.46 359.04 132.01 324.02 126.27"/><polyline class="cls-2" points="352.04 110.35 351.65 121.66 362.31 123.48 362.09 129.67 359.04 132.01"/><line class="cls-2" x1="359.34" y1="125.46" x2="362.31" y2="123.48"/><line class="cls-2" x1="348.38" y1="123.58" x2="351.65" y2="121.66"/><line class="cls-2" x1="35.72" y1="57.73" x2="47.72" y2="58.13"/><line class="cls-2" x1="49.09" y1="59.84" x2="61.08" y2="59.73"/><line class="cls-2" x1="62.44" y1="61.62" x2="75.72" y2="61.9"/><path class="cls-2" d="M77.24,64.13l13.41-.19,14.27-2.69,10.78-4.31a1.67,1.67,0,0,0,.74-2"/><path class="cls-2" d="M110.06,56.08l-6.5,2.26-.28.46-.59-.37L91,60.57s-.9,0-1.09.31-.46-.13-.46-.13l-4.74-.25"/><line class="cls-2" x1="23.39" y1="75.47" x2="40.65" y2="72.42"/><line class="cls-2" x1="23.15" y1="70.87" x2="44.65" y2="67.39"/><path class="cls-2" d="M27.11,68.65l22.18-1.42s21.62,3,24.67,4.23,6,7.37,5.94,14.46-.39,20.16-.39,20.16"/><path class="cls-2" d="M93.8,92.26l-.07,21.82s1,9.94-8.12,9.78"/><path class="cls-2" d="M85.88,123.9s1.67,1.59,8.56-1,34.06-10.06,34.06-10.06,4.44-1.82,4.59-8.27A105.22,105.22,0,0,0,132,89.64"/><path class="cls-2" d="M97.33,76.7s2.77-1.64,7.47-.75S153,84.09,153,84.09s11.73,3.29,9.49,16.43-6.79,21.27-6.79,21.27"/><path class="cls-2" d="M162,142.34s2.92,1.35,8.82-.45,32.86-13,32.86-13,1.64-.37,3.73-4.26,6.27-10.83,6.27-10.83"/><path class="cls-2" d="M165.06,142.21s6.2-1.66,9-7.34,17.55-33.38,17.55-33.38"/><path class="cls-2" d="M195.92,94.52s6-4,9.7-4.75,19.56-6.43,19.56-6.43"/><path class="cls-2" d="M198.22,93.25s11.21-.87,14.34-.35,42.87,8.59,42.87,8.59,22.55,7,25.69,9.56"/><path class="cls-2" d="M47.19,74.8c.88,0,1.69,1.09,1.81,2.44s-.47,2.45-1.35,2.45"/><path class="cls-2" d="M52.33,77.33c-.48-5.14-3.56-9.3-6.88-9.3s-5.61,4.16-5.12,9.3,3.56,9.3,6.88,9.3S52.82,82.47,52.33,77.33Zm-5.35,7c-2.47,0-4.78-3.12-5.13-7s1.35-6.94,3.83-6.94,4.76,3.11,5.13,6.94S49.46,84.28,47,84.28Z"/><path class="cls-2" d="M50.81,77.33c-.37-3.83-2.66-6.94-5.13-6.94s-4.19,3.11-3.83,6.94,2.66,7,5.13,7S51.17,81.16,50.81,77.33Z"/><ellipse class="cls-2" cx="43.39" cy="78.08" rx="1.57" ry="2.46" transform="translate(-11.75 7.81) rotate(-9.06)"/><path class="cls-2" d="M47.19,74.8c.88,0,1.69,1.09,1.81,2.44s-.47,2.45-1.35,2.45"/><line class="cls-2" x1="47.06" y1="74.79" x2="43.17" y2="75.63"/><line class="cls-2" x1="47.65" y1="79.69" x2="44.07" y2="80.41"/><ellipse class="cls-2" cx="69.62" cy="81.57" rx="6.61" ry="9.85" transform="translate(-18.2 20.02) rotate(-14.49)"/><ellipse class="cls-2" cx="69.62" cy="81.57" rx="4.95" ry="7.37" transform="matrix(0.97, -0.25, 0.25, 0.97, -18.2, 20.02)"/><ellipse class="cls-2" cx="66.75" cy="82.23" rx="1.72" ry="2.57" transform="matrix(0.97, -0.25, 0.25, 0.97, -18.45, 19.32)"/><path class="cls-2" d="M66.28,79.76l3.16-.69a1.16,1.16,0,0,1,.71-.23c1,0,1.91,1.13,2.1,2.52s-.44,2.53-1.41,2.53l-3.5.78"/><ellipse class="cls-2" cx="85.26" cy="113.86" rx="7.37" ry="10.38" transform="translate(-23.87 22.63) rotate(-13.28)"/><ellipse class="cls-2" cx="85.26" cy="113.86" rx="7.37" ry="10.38" transform="translate(-23.87 22.63) rotate(-13.28)"/><ellipse class="cls-2" cx="85.06" cy="113.78" rx="5.5" ry="7.75" transform="translate(-23.86 22.58) rotate(-13.28)"/><ellipse class="cls-2" cx="82.29" cy="114.38" rx="1.82" ry="2.56" transform="translate(-24.07 21.96) rotate(-13.28)"/><path class="cls-2" d="M81.63,112l3.9-1c1,0,2,1.13,2.13,2.53S87.12,116,86.11,116l-3.08.8"/><ellipse class="cls-2" cx="99.11" cy="86.91" rx="7.14" ry="10.24" transform="translate(-19.7 29.8) rotate(-15.57)"/><ellipse class="cls-2" cx="99.11" cy="86.91" rx="5.27" ry="7.56" transform="translate(-19.7 29.8) rotate(-15.57)"/><ellipse class="cls-2" cx="96.17" cy="87.62" rx="1.83" ry="2.63" transform="translate(-19.99 29.04) rotate(-15.57)"/><path class="cls-2" d="M95.52,85.05,99.68,84c1,0,2,1.15,2.22,2.58s-.47,2.58-1.51,2.58l-3.53,1.06"/><ellipse class="cls-2" cx="150.92" cy="96.17" rx="8.6" ry="11.13" transform="translate(-18.1 37.36) rotate(-13.32)"/><ellipse class="cls-2" cx="150.92" cy="96.17" rx="6.35" ry="8.22" transform="translate(-18.1 37.36) rotate(-13.32)"/><ellipse class="cls-2" cx="148.09" cy="96.85" rx="2.14" ry="2.78" transform="translate(-18.33 36.73) rotate(-13.32)"/><path class="cls-2" d="M147.5,94.1,151.2,93a2.76,2.76,0,0,1,2.48,2.67c.18,1.51-.65,2.78-1.84,2.82l-2.94,1"/><ellipse class="cls-2" cx="161.2" cy="131.39" rx="8.9" ry="11.1" transform="translate(-29.43 48.28) rotate(-15.63)"/><ellipse class="cls-2" cx="161.2" cy="131.39" rx="6.44" ry="8.04" transform="translate(-29.43 48.28) rotate(-15.63)"/><ellipse class="cls-2" cx="159.37" cy="132.24" rx="2.15" ry="2.68" transform="translate(-29.73 47.81) rotate(-15.63)"/><path class="cls-2" d="M158.63,129.66l3.74-1.33a2.69,2.69,0,0,1,2.5,2.54,2.22,2.22,0,0,1-1.82,2.74l-2.85,1.31"/><ellipse class="cls-2" cx="201.23" cy="105.24" rx="9.2" ry="12" transform="translate(-23.73 74.22) rotate(-19.76)"/><ellipse class="cls-2" cx="201.23" cy="105.24" rx="6.49" ry="8.47" transform="translate(-23.73 74.22) rotate(-19.76)"/><ellipse class="cls-2" cx="199.13" cy="106.31" rx="2.44" ry="3.19" transform="translate(-24.22 73.57) rotate(-19.76)"/><path class="cls-2" d="M198.08,103.29s2.27-1,2.76-1.13a3.42,3.42,0,0,1,1-.17c1.38,0,2.7,1.39,2.93,3.11a2.61,2.61,0,0,1-1.47,3l-3,1.21"/><ellipse class="cls-2" cx="239.82" cy="112.08" rx="10.87" ry="12.72" transform="translate(-21.42 154.84) rotate(-34.34)"/><ellipse class="cls-2" cx="239.82" cy="112.08" rx="8.3" ry="9.72" transform="translate(-21.42 154.84) rotate(-34.34)"/><ellipse class="cls-2" cx="237.42" cy="113.11" rx="2.63" ry="3.08" transform="translate(-22.42 153.67) rotate(-34.34)"/><path class="cls-2" d="M236.24,110.32l2.49-1.27a2.35,2.35,0,0,1,1.37-.43,3.38,3.38,0,0,1,3.16,2.95,2.52,2.52,0,0,1-1.29,2.7l-3.11,1.56"/><line class="cls-2" x1="205.51" y1="116.5" x2="228.48" y2="108.26"/><line class="cls-2" x1="235.58" y1="100.22" x2="241.38" y2="98.8"/><line class="cls-2" x1="245.68" y1="123.39" x2="278.43" y2="109.48"/><ellipse class="cls-2" cx="146.76" cy="71.84" rx="2.12" ry="1.69" transform="translate(41.99 197.22) rotate(-76.2)"/><ellipse class="cls-2" cx="165.57" cy="74.63" rx="2.12" ry="1.69" transform="translate(53.6 217.61) rotate(-76.2)"/><ellipse class="cls-2" cx="185.11" cy="77.33" rx="2.12" ry="1.69" transform="translate(65.85 238.65) rotate(-76.2)"/><ellipse class="cls-2" cx="205.66" cy="80.39" rx="2.12" ry="1.69" transform="translate(78.53 260.94) rotate(-76.2)"/><ellipse class="cls-2" cx="227.6" cy="83.5" rx="2.39" ry="1.91" transform="translate(92.21 284.61) rotate(-76.2)"/><ellipse class="cls-2" cx="251.21" cy="86.87" rx="2.39" ry="1.91" transform="translate(106.93 310.11) rotate(-76.2)"/><ellipse class="cls-2" cx="275.24" cy="90.49" rx="2.39" ry="1.91" transform="translate(121.7 336.19) rotate(-76.2)"/><line class="cls-2" x1="275.44" y1="88.12" x2="280.33" y2="87.64"/><polyline class="cls-2" points="275.23 92.84 286.7 92.23 294.25 89.53"/><polyline class="cls-2" points="251.25 89.12 263.04 88.81 270.53 86.16"/><polyline class="cls-2" points="227.13 85.85 240.18 85.55 247.43 83.25"/><polyline class="cls-2" points="204.89 82.33 219.12 82.33 226.06 80.14"/><polyline class="cls-2" points="184.48 79.33 198.05 79.22 204.89 77.49"/><polyline class="cls-2" points="165.39 76.72 178.87 76.72 184.74 74.99"/><polyline class="cls-2" points="146.28 74.07 160.61 74.07 163.93 73.41"/><path class="cls-2" d="M101.85,62l8.23,1.36s5.1,1.25,6.71,7.92"/><path class="cls-2" d="M110.77,63.48a8.41,8.41,0,0,1,6.74,3.61s1.29,3.49,1.37,3.81"/><path class="cls-2" d="M99.56,75.68a60.74,60.74,0,0,1,8-2.53c3-.56,26-5.38,26-5.38"/><line class="cls-2" x1="48.37" y1="86.45" x2="63.39" y2="83.56"/><line class="cls-2" x1="71.41" y1="91.27" x2="79.86" y2="89.4"/><line class="cls-2" x1="83.42" y1="103.56" x2="93.48" y2="101.35"/><line class="cls-2" x1="102.09" y1="96.81" x2="152.89" y2="84.03"/><line class="cls-2" x1="153.13" y1="107.14" x2="161.62" y2="104.62"/></g></g></g></svg>