<svg xmlns="http://www.w3.org/2000/svg" viewBox="0 0 625.56 419.29"><defs><style>.cls-1{opacity:0.6;}.cls-2{fill:none;stroke:#fff;stroke-miterlimit:10;stroke-width:3px;}</style></defs><g id="Layer_2" data-name="Layer 2"><g id="Layer_16" data-name="Layer 16"><g id="Group_685" data-name="Group 685" class="cls-1"><path id="Path_1443" data-name="Path 1443" class="cls-2" d="M91.05,146c0-1.17,2.35-66.41,2.35-66.41l56.65-12.51L196.54,82,185.6,89.38,184,138.61l7,1.57,32.43-28.13"/><path id="Path_1445" data-name="Path 1445" class="cls-2" d="M239.26,95.2l63.17-71.07,78.92,20.32,9,6.64,30.87,15.24,10.16,9.76,46.49,51.58s13.29,13.68,12.89,44.55L490,219.49"/><path id="Path_1446" data-name="Path 1446" class="cls-2" d="M366.12,40.93,374.32,53s7,8.21,8.6,9.38,46.49,11.33,46.49,11.33"/><path id="Path_1447" data-name="Path 1447" class="cls-2" d="M405.19,67.89l22.27,24.22H409.1L386.44,64"/><path id="Path_1448" data-name="Path 1448" class="cls-2" d="M195.37,179.63l62.52-44.54,2.34-10.16L374.32,53"/><path id="Path_1449" data-name="Path 1449" class="cls-2" d="M341.89,34.29,352.05,1.86,381,10.45l-8.6,32"/><path id="Path_1450" data-name="Path 1450" class="cls-2" d="M352.05,1.86,330.17,3l-13.28,12.5,10.55,15.63"/><line id="Line_609" data-name="Line 609" class="cls-2" x1="330.17" y1="3.03" x2="333.69" y2="33.12"/><line id="Line_610" data-name="Line 610" class="cls-2" x1="346.58" y1="20.22" x2="375.88" y2="28.04"/><path id="Path_1451" data-name="Path 1451" class="cls-2" d="M296,115.62l-62.77,98s-1.56,9,12.12,12.11l68-98.85s.78-7.42-.78-9.77"/><path id="Path_1452" data-name="Path 1452" class="cls-2" d="M289.15,106.57s8.59,21.1,28.52,6.25l52-26.57L381,122l36.68,115.42"/><path id="Path_1453" data-name="Path 1453" class="cls-2" d="M382.92,62.42s5.86,15.24-13.29,23.83"/><line id="Line_611" data-name="Line 611" class="cls-2" x1="344.24" y1="99.93" x2="359.47" y2="158.54"/><line id="Line_612" data-name="Line 612" class="cls-2" x1="353.61" y1="94.46" x2="366.9" y2="155.8"/><line id="Line_613" data-name="Line 613" class="cls-2" x1="379.56" y1="166.25" x2="394.25" y2="166.35"/><line id="Line_614" data-name="Line 614" class="cls-2" x1="336.81" y1="165.96" x2="354.31" y2="166.08"/><line id="Line_615" data-name="Line 615" class="cls-2" x1="356.04" y1="173.25" x2="336.42" y2="172.99"/><line id="Line_616" data-name="Line 616" class="cls-2" x1="397.01" y1="173.77" x2="380.84" y2="173.57"/><path id="Path_1454" data-name="Path 1454" class="cls-2" d="M341.89,164s-8.6-1.18-10.16-1.18-44.54,2.35-44.54,2.35"/><path id="Path_1455" data-name="Path 1455" class="cls-2" d="M344.24,173.38s-2,4.3-4.69,4.69-61.34,1.56-61.34,1.56"/><path id="Path_1456" data-name="Path 1456" class="cls-2" d="M264.14,166.74l-27.74,2.74s-4.3,2.34-3.91,7,8.6,3.52,8.6,3.52l13.67-.4"/><line id="Line_617" data-name="Line 617" class="cls-2" x1="274.69" y1="181.2" x2="275.47" y2="228.34"/><path id="Path_1457" data-name="Path 1457" class="cls-2" d="M304.77,178.07l-25.39,35.17s-3.13,7,4.3,12.5c0,0,3.51,3.91,13.28-5.47l30.48-41"/><path id="Path_1458" data-name="Path 1458" class="cls-2" d="M307.51,205.42v59.39h-9.77V218.32"/><path id="Path_1459" data-name="Path 1459" class="cls-2" d="M259.45,206.59l3.13,33.6S274.3,250,261,261.68L2,262.46l-.39-4.68,14.06-7.43,21.88-1.17,3.13-19.93H127v8.21H46.9L43,262.86"/><path id="Path_1460" data-name="Path 1460" class="cls-2" d="M9.39,252.7l8.21-88.3,39.07-3.13L59,147.2l23.44-1.95,1.17-16,7.81-.39"/><path id="Path_1461" data-name="Path 1461" class="cls-2" d="M91.44,144.47l41-5.08,14.07-.39-.79-7.82-15.63-2.73-10.55,2.34-18.75-22.27L99.26,91.33l44.15-12.89,6.64-11.34"/><line id="Line_618" data-name="Line 618" class="cls-2" x1="145.85" y1="74.34" x2="185.61" y2="89.38"/><line id="Line_619" data-name="Line 619" class="cls-2" x1="143.41" y1="78.44" x2="137.55" y2="128.84"/><line id="Line_620" data-name="Line 620" class="cls-2" x1="141.07" y1="129.23" x2="150.11" y2="76.41"/><line id="Line_621" data-name="Line 621" class="cls-2" x1="98.72" y1="143.5" x2="95.47" y2="229.8"/><line id="Line_622" data-name="Line 622" class="cls-2" x1="94.43" y1="237.28" x2="93.22" y2="262.91"/><line id="Line_623" data-name="Line 623" class="cls-2" x1="88.25" y1="128.72" x2="84.6" y2="229.8"/><line id="Line_624" data-name="Line 624" class="cls-2" x1="83.56" y1="237.28" x2="82.35" y2="262.91"/><line id="Line_625" data-name="Line 625" class="cls-2" x1="56.77" y1="238.24" x2="57.3" y2="260.31"/><line id="Line_626" data-name="Line 626" class="cls-2" x1="131.77" y1="138.24" x2="131.77" y2="261.11"/><path id="Path_1462" data-name="Path 1462" class="cls-2" d="M146.53,139l23.84,2.4,7.2-9.16,3.28-43.88"/><path id="Path_1463" data-name="Path 1463" class="cls-2" d="M185.59,106.69H204a6.14,6.14,0,0,1,3.86,5.62l-.35,14.21"/><path id="Path_1464" data-name="Path 1464" class="cls-2" d="M186.12,110.73h21.41"/><line id="Line_627" data-name="Line 627" class="cls-2" x1="191.03" y1="110.55" x2="191.03" y2="139.51"/><line id="Line_628" data-name="Line 628" class="cls-2" x1="195.42" y1="111.08" x2="196.47" y2="135.3"/><path id="Path_1465" data-name="Path 1465" class="cls-2" d="M191.08,140.17h13.29v7.24l-26.5-1.76,5.61,23.17,11.23,45.45v27.21h10.71V213.92L193.21,170.6l-10.08-4.35"/><path id="Path_1466" data-name="Path 1466" class="cls-2" d="M184.62,262.24V240.83h24.73v21.41"/><path id="Path_1467" data-name="Path 1467" class="cls-2" d="M232.49,176.51H214.12L199,190"/><path id="Path_1468" data-name="Path 1468" class="cls-2" d="M235.79,180.24l-14.45.37-7.34,10,10.28,16.76L222,224.3s7,6.13,7,17.63-13,19.58-17,19.7"/><line id="Line_629" data-name="Line 629" class="cls-2" x1="226.24" y1="230.06" x2="234.44" y2="219.65"/><path id="Path_1469" data-name="Path 1469" class="cls-2" d="M240.44,223.44c-1.23,1.23-11.63,14.93-11.63,14.93"/><path id="Path_1470" data-name="Path 1470" class="cls-2" d="M238.11,226.51v22.15s-.61,13.22-13,13.22"/><path id="Path_1471" data-name="Path 1471" class="cls-2" d="M238.23,241.8H258.3V207.65"/><line id="Line_630" data-name="Line 630" class="cls-2" x1="235.29" y1="179.88" x2="239.46" y2="203.25"/><line id="Line_631" data-name="Line 631" class="cls-2" x1="280.82" y1="223.2" x2="263.44" y2="240.58"/><line id="Line_632" data-name="Line 632" class="cls-2" x1="284.74" y1="226.02" x2="266.38" y2="245.23"/><path id="Path_1472" data-name="Path 1472" class="cls-2" d="M267.85,248.66l8.81-6.73s12.73,4.77-2.93,19.46l-12.72.3"/><line id="Line_633" data-name="Line 633" class="cls-2" x1="273.48" y1="261.63" x2="297.47" y2="261.63"/><line id="Line_634" data-name="Line 634" class="cls-2" x1="276.3" y1="235.56" x2="276.3" y2="242.29"/><path id="Path_1473" data-name="Path 1473" class="cls-2" d="M168.72,261.49v11.09s-.18,6,8.54,6H191.8v-8.72h-4.55v-7.26"/><path id="Path_1474" data-name="Path 1474" class="cls-2" d="M267.74,261.49v11.09s.18,6-8.54,6H244.67v-8.72h4.54v-7.26"/><line id="Line_635" data-name="Line 635" class="cls-2" x1="191.98" y1="270.94" x2="245.21" y2="270.94"/><line id="Line_636" data-name="Line 636" class="cls-2" x1="192.34" y1="275.48" x2="247.76" y2="275.48"/><path id="Path_1475" data-name="Path 1475" class="cls-2" d="M168.72,270.4H110v-8.54"/><path id="Path_1476" data-name="Path 1476" class="cls-2" d="M132,270.94v18h35.61v18.53h-14.9v29.8s1.82,17.44-14.9,17.44h-2.36l-10.35,6.91"/><path id="Path_1477" data-name="Path 1477" class="cls-2" d="M124.75,324.72l8.18,4.36h2.9v-2.9h5.82V310.56l-4.09-4.09v-7.91h29.52"/><line id="Line_637" data-name="Line 637" class="cls-2" x1="125.12" y1="288.57" x2="132.02" y2="288.57"/><path id="Path_1478" data-name="Path 1478" class="cls-2" d="M231,276v16.53H254.3"/><path id="Path_1479" data-name="Path 1479" class="cls-2" d="M259.2,289.66v20.16h9.45"/><path id="Path_1480" data-name="Path 1480" class="cls-2" d="M244.67,278.57l-4,.91v7.09l8,1.81,35.62-.18s16.17,4.73,16.17,34.16-3.63,41.06-15.62,40.88-52.15-29.8-52.15-29.8l-5.45-.18s24.16,25.44,63.41,38.7c0,0,22.16,2.36,39.25-.55,0,0,16.71-9.62,16.71-37.61S336.24,292,320.44,281.3s-30.89-8.18-30.89-8.18l-21.81-.54"/><path id="Path_1481" data-name="Path 1481" class="cls-2" d="M262.11,278l19.62,4.36,8.72,5.27.37,4.18"/><path id="Path_1482" data-name="Path 1482" class="cls-2" d="M259.75,301.83,271,296.2l16.72,8.17,1.27,4.55-9.08-1.28v5.82s8.17,3.27,8.17,13.63S291.55,352,275.37,352s-14.17-23.44-14.17-23.44-.91-11.45,6.54-13.63l.55-4.36H254.48V288.2"/><line id="Line_638" data-name="Line 638" class="cls-2" x1="153.1" y1="333.26" x2="260.11" y2="333.26"/><path id="Path_1483" data-name="Path 1483" class="cls-2" d="M294.08,154.23l46.25-26.56-25,34.77"/><path id="Path_1484" data-name="Path 1484" class="cls-2" d="M337.89,102.28l.78,26.76,10.24-8.4"/><line id="Line_639" data-name="Line 639" class="cls-2" x1="313.75" y1="123.27" x2="337.63" y2="111.2"/><line id="Line_640" data-name="Line 640" class="cls-2" x1="355.47" y1="103.59" x2="371.73" y2="94.15"/><path id="Path_1485" data-name="Path 1485" class="cls-2" d="M357.83,113.3l24.7,9.68L409.1,92.11l20.31,20.71c19.54,20.71,21.1,45.32,21.1,45.32L449,217.53"/><line id="Line_641" data-name="Line 641" class="cls-2" x1="339.2" y1="127.73" x2="353.63" y2="137.44"/><line id="Line_642" data-name="Line 642" class="cls-2" x1="336.84" y1="162.62" x2="354.15" y2="140.58"/><line id="Line_643" data-name="Line 643" class="cls-2" x1="362.29" y1="133.5" x2="381.7" y2="123.53"/><path id="Path_1486" data-name="Path 1486" class="cls-2" d="M396.8,250.79l-19.3-93.68c-17.84-2.36-23.61,7.35-23.61,7.35L383,270.05"/><path id="Path_1487" data-name="Path 1487" class="cls-2" d="M387.49,256.46l63.43-39.64,116.83,15.86-1.4,24L468.18,242l-51.07,50.84,19.12,13.06L450,389.15l19.82-4,24.48,7.93L530,401.75l-27,13.74-74.16,2.1s-34.74,4.9-57.36-34.28l-1.4-3.49L364,375.39,360,342Z"/><line id="Line_644" data-name="Line 644" class="cls-2" x1="390.53" y1="320.13" x2="370.24" y2="379.59"/><path id="Path_1488" data-name="Path 1488" class="cls-2" d="M439,364.66l-44.3-28.21L381.2,384.72S394.26,409,436.93,409c0,0,19.59,3.26,35.21-5.83s18.42-10.49,18.42-10.49"/><path id="Path_1489" data-name="Path 1489" class="cls-2" d="M447.43,373.53l17.25-22.62,6.3.23,19.12,40.34"/><path id="Path_1490" data-name="Path 1490" class="cls-2" d="M436.23,305.9l17.26,11,21.69-34.74s7.69-12.13-3.5-28.92l-3.27-1.87-.23-9.32"/><line id="Line_645" data-name="Line 645" class="cls-2" x1="426.91" y1="283.75" x2="455.35" y2="300.07"/><path id="Path_1491" data-name="Path 1491" class="cls-2" d="M446,312.66l20.05-30.08,1.17-23.79-4-11.42"/><path id="Path_1492" data-name="Path 1492" class="cls-2" d="M435.07,275.35a12.71,12.71,0,0,0,9.79,9.56c8.4,1.87,16.32-2.33,17-13.06s4.2-17.48,4.2-17.48"/><path id="Path_1493" data-name="Path 1493" class="cls-2" d="M564.49,256.7l-1.87,28.91-6.06,10.73-1.17-.24-18.65,40.81,14.69,9.56,4,35.45-31.94,8.62s-32.65-7.93-41-24L498.26,322l6.07-1.87,20.75-39.87L553.3,254.6l-2.1,29.61s-4.9,13.53-15.62,7.23l-11-8.4"/><path id="Path_1494" data-name="Path 1494" class="cls-2" d="M504.32,320.13l27.05,13.52L551,288l.24-3.74"/><path id="Path_1495" data-name="Path 1495" class="cls-2" d="M547.46,312.66l11,27.29-7.23,5.13"/><line id="Line_646" data-name="Line 646" class="cls-2" x1="547" y1="314.99" x2="547.46" y2="343.44"/><path id="Path_1496" data-name="Path 1496" class="cls-2" d="M549.56,310.33l3.73,2.1,13.06,25.41s4.43,14.23-7.93,18.19l3.27,16.56,7.69-1.16,13.06,6.06-27.05,4.43"/><path id="Path_1497" data-name="Path 1497" class="cls-2" d="M566.82,341.35l5.83-.24,12.82,29.62-6.29,5.13,9.32-.47.24-2.57,34.51,2.1s-8.7,18.35-36.22,19.28"/><line id="Line_647" data-name="Line 647" class="cls-2" x1="573.81" y1="378.89" x2="620.22" y2="379.35"/><path id="Path_1498" data-name="Path 1498" class="cls-2" d="M547.46,384.25l46.64,2.57s-10.44,17.36-37.93,15.09"/><line id="Line_648" data-name="Line 648" class="cls-2" x1="536.26" y1="387.35" x2="590.44" y2="391"/><path id="Path_1499" data-name="Path 1499" class="cls-2" d="M528.55,389.14l38.27,4.67s-1.7,11.11-49.26,14.38"/><line id="Line_649" data-name="Line 649" class="cls-2" x1="491.73" y1="391.95" x2="517.38" y2="388.92"/><path id="Path_1500" data-name="Path 1500" class="cls-2" d="M73,271h34.56s18.88,5,18.88,22.51v72.32s-.2,14.67-14.26,14.67H78.61A13.31,13.31,0,0,1,68,366.85V352.78a38.75,38.75,0,0,1-5.22-19.49v-54S63.14,271,73,271Z"/><path id="Path_1501" data-name="Path 1501" class="cls-2" d="M64.55,274.43l4.82,9.64,2.81,13.46v53L68,352.78"/><path id="Path_1502" data-name="Path 1502" class="cls-2" d="M65.35,345.55V290.3l2.41-7.43s1.61-3.82,10.45-3.82H121"/><line id="Line_650" data-name="Line 650" class="cls-2" x1="72.18" y1="350.57" x2="125.22" y2="350.57"/><line id="Line_651" data-name="Line 651" class="cls-2" x1="71.78" y1="333.7" x2="125.42" y2="333.7"/><line id="Line_652" data-name="Line 652" class="cls-2" x1="72.78" y1="316.42" x2="125.82" y2="316.42"/><line id="Line_653" data-name="Line 653" class="cls-2" x1="72.38" y1="303.76" x2="126.02" y2="303.76"/><path id="Path_1503" data-name="Path 1503" class="cls-2" d="M71.78,295.73s0-7.64,7.63-7.64h37.37s9.44,1.41,9.44,8.44"/><path id="Path_1504" data-name="Path 1504" class="cls-2" d="M66.35,277.44l6-2h43.19"/><path id="Path_1505" data-name="Path 1505" class="cls-2" d="M70.17,352s.8,9.64,6.83,9.64h39.58l9.84-1"/><path id="Path_1506" data-name="Path 1506" class="cls-2" d="M68.16,354.19S67,373.07,79.41,373.07h39.78s6.83-1.6,7.23-6.22"/><line id="Line_654" data-name="Line 654" class="cls-2" x1="132.93" y1="329.08" x2="126.02" y2="340.53"/><line id="Line_655" data-name="Line 655" class="cls-2" x1="134.46" y1="329.28" x2="134.46" y2="354.7"/><line id="Line_656" data-name="Line 656" class="cls-2" x1="139.88" y1="326.87" x2="139.88" y2="353.79"/><line id="Line_657" data-name="Line 657" class="cls-2" x1="266.85" y1="275.84" x2="309.85" y2="275.84"/><path id="Path_1507" data-name="Path 1507" class="cls-2" d="M281.73,282.39l7-2.74h28.93"/><path id="Path_1508" data-name="Path 1508" class="cls-2" d="M291,292.71l11.05-6h25.52"/><path id="Path_1509" data-name="Path 1509" class="cls-2" d="M295.38,298.94,307,295.32h28.53"/><path id="Path_1510" data-name="Path 1510" class="cls-2" d="M299.4,310c1,0,12.86-3.42,12.86-3.42h29.13"/><path id="Path_1511" data-name="Path 1511" class="cls-2" d="M300.6,324.46l9.25-2.82h31.34l4.82,3.82"/><path id="Path_1512" data-name="Path 1512" class="cls-2" d="M299.4,342.54l10.24-4.22H341l4.42,4.62"/><line id="Line_658" data-name="Line 658" class="cls-2" x1="298.8" y1="353.79" x2="342.19" y2="353.79"/><path id="Path_1513" data-name="Path 1513" class="cls-2" d="M293.37,360.62l6,6.63H334"/><line id="Line_659" data-name="Line 659" class="cls-2" x1="285.74" y1="363.63" x2="288.15" y2="371.06"/><line id="Line_660" data-name="Line 660" class="cls-2" x1="271.88" y1="364.43" x2="272.28" y2="358.81"/><line id="Line_661" data-name="Line 661" class="cls-2" x1="262.43" y1="353.99" x2="262.03" y2="359.61"/><line id="Line_662" data-name="Line 662" class="cls-2" x1="254.6" y1="349.37" x2="253.19" y2="353.18"/><line id="Line_663" data-name="Line 663" class="cls-2" x1="245.56" y1="348.97" x2="247.16" y2="344.55"/><line id="Line_664" data-name="Line 664" class="cls-2" x1="235.11" y1="340.13" x2="237.32" y2="337.31"/><path id="Path_1515" data-name="Path 1515" class="cls-2" d="M254,295.53H241.13l.2,6.42h12.46"/><path id="Path_1516" data-name="Path 1516" class="cls-2" d="M19.63,164.65V143l29.19-8.58,13.94-1.08v-18l20-3.22,9.66-.21"/><line id="Line_665" data-name="Line 665" class="cls-2" x1="80.99" y1="112.82" x2="81.31" y2="129.35"/><line id="Line_666" data-name="Line 666" class="cls-2" x1="83.63" y1="129.23" x2="63.38" y2="133.25"/><line id="Line_667" data-name="Line 667" class="cls-2" x1="62.76" y1="115.3" x2="80.5" y2="121.41"/><path id="Path_1517" data-name="Path 1517" class="cls-2" d="M47.6,134.54V150.1l6.81.65-.81,10.69"/><path id="Path_1518" data-name="Path 1518" class="cls-2" d="M33.18,139.08l7,2.27-.33,20.74"/><line id="Line_668" data-name="Line 668" class="cls-2" x1="25.94" y1="141.2" x2="25.89" y2="163.71"/><line id="Line_669" data-name="Line 669" class="cls-2" x1="20.05" y1="154.47" x2="47.44" y2="147.83"/><path id="Path_1519" data-name="Path 1519" class="cls-2" d="M20.22,164.68l.64,9.24h16l.16-6.32.16-5"/><line id="Line_670" data-name="Line 670" class="cls-2" x1="29.78" y1="174.73" x2="29.62" y2="249.11"/><line id="Line_671" data-name="Line 671" class="cls-2" x1="24.27" y1="174.24" x2="24.1" y2="249.76"/><path id="Path_1520" data-name="Path 1520" class="cls-2" d="M30.75,174.4l9.4.17L37.88,248"/><path id="Path_1521" data-name="Path 1521" class="cls-2" d="M46.14,228.53l1.14-55.26,11.5-.16-1,56.56"/><line id="Line_672" data-name="Line 672" class="cls-2" x1="30.1" y1="179.27" x2="39.5" y2="178.78"/><line id="Line_673" data-name="Line 673" class="cls-2" x1="29.71" y1="185.72" x2="39.11" y2="185.23"/><line id="Line_674" data-name="Line 674" class="cls-2" x1="29.52" y1="192.16" x2="38.92" y2="191.68"/><line id="Line_675" data-name="Line 675" class="cls-2" x1="29.52" y1="198.61" x2="38.92" y2="198.13"/><line id="Line_676" data-name="Line 676" class="cls-2" x1="29.58" y1="205.06" x2="38.98" y2="204.58"/><line id="Line_677" data-name="Line 677" class="cls-2" x1="29.26" y1="211.51" x2="38.66" y2="211.03"/><line id="Line_678" data-name="Line 678" class="cls-2" x1="29.2" y1="217.96" x2="38.59" y2="217.48"/><line id="Line_679" data-name="Line 679" class="cls-2" x1="29.26" y1="224.41" x2="38.66" y2="223.92"/><line id="Line_680" data-name="Line 680" class="cls-2" x1="48.16" y1="177.57" x2="58.18" y2="177.06"/><line id="Line_681" data-name="Line 681" class="cls-2" x1="47.73" y1="184.03" x2="57.75" y2="183.51"/><line id="Line_682" data-name="Line 682" class="cls-2" x1="47.5" y1="190.48" x2="57.52" y2="189.96"/><line id="Line_683" data-name="Line 683" class="cls-2" x1="47.48" y1="196.93" x2="57.49" y2="196.41"/><line id="Line_684" data-name="Line 684" class="cls-2" x1="47.52" y1="203.38" x2="57.54" y2="202.86"/><line id="Line_685" data-name="Line 685" class="cls-2" x1="47.16" y1="209.83" x2="57.17" y2="209.31"/><line id="Line_686" data-name="Line 686" class="cls-2" x1="47.07" y1="216.28" x2="57.08" y2="215.76"/><line id="Line_687" data-name="Line 687" class="cls-2" x1="47.11" y1="222.73" x2="57.13" y2="222.21"/><line id="Line_688" data-name="Line 688" class="cls-2" x1="29.91" y1="230.86" x2="39.31" y2="230.37"/><line id="Line_689" data-name="Line 689" class="cls-2" x1="29.91" y1="237.31" x2="39.31" y2="236.82"/><line id="Line_690" data-name="Line 690" class="cls-2" x1="30.04" y1="243.76" x2="39.44" y2="243.27"/><line id="Line_691" data-name="Line 691" class="cls-2" x1="20.72" y1="169.1" x2="37.09" y2="168.43"/><line id="Line_692" data-name="Line 692" class="cls-2" x1="54.02" y1="156.24" x2="26.19" y2="158.46"/><path id="Path_1522" data-name="Path 1522" class="cls-2" d="M237.86,93l10.2,24.49-5.36,3.57-4.33-1.91-7.66-17.86.51-4.85Z"/><path id="Path_1523" data-name="Path 1523" class="cls-2" d="M228.67,100.69l10.21,24.49-5.36,3.58-4.34-1.92L221.52,109l.51-4.85Z"/><ellipse id="Ellipse_240" data-name="Ellipse 240" class="cls-2" cx="369.08" cy="70.07" rx="7.13" ry="8.34"/><ellipse id="Ellipse_241" data-name="Ellipse 241" class="cls-2" cx="335.76" cy="89.63" rx="6.41" ry="7.5"/><ellipse id="Ellipse_242" data-name="Ellipse 242" class="cls-2" cx="311.81" cy="104.32" rx="5.96" ry="6.97"/><ellipse id="Ellipse_243" data-name="Ellipse 243" class="cls-2" cx="393.62" cy="267.91" rx="3.34" ry="4.33"/><ellipse id="Ellipse_244" data-name="Ellipse 244" class="cls-2" cx="377.2" cy="314.43" rx="3.34" ry="4.33"/><ellipse id="Ellipse_245" data-name="Ellipse 245" class="cls-2" cx="449.5" cy="273.01" rx="3.34" ry="4.33"/><line id="Line_693" data-name="Line 693" class="cls-2" x1="453.1" y1="316.68" x2="464.68" y2="350.91"/><line id="Line_694" data-name="Line 694" class="cls-2" x1="467.87" y1="293.35" x2="517.75" y2="293.35"/><line id="Line_695" data-name="Line 695" class="cls-2" x1="463.99" y1="300.46" x2="513.86" y2="300.46"/><line id="Line_696" data-name="Line 696" class="cls-2" x1="459.99" y1="307.35" x2="509.86" y2="307.35"/><line id="Line_697" data-name="Line 697" class="cls-2" x1="455.77" y1="314.57" x2="505.64" y2="314.57"/><line id="Line_698" data-name="Line 698" class="cls-2" x1="454.99" y1="320.12" x2="504.86" y2="320.12"/><line id="Line_699" data-name="Line 699" class="cls-2" x1="456.55" y1="325.78" x2="496.09" y2="325.78"/><line id="Line_700" data-name="Line 700" class="cls-2" x1="458.54" y1="332" x2="494.42" y2="332"/><line id="Line_701" data-name="Line 701" class="cls-2" x1="460.32" y1="337.67" x2="492.2" y2="337.67"/><line id="Line_702" data-name="Line 702" class="cls-2" x1="462.21" y1="343.33" x2="490.42" y2="343.33"/><line id="Line_703" data-name="Line 703" class="cls-2" x1="464.43" y1="348.44" x2="488.53" y2="348.44"/><line id="Line_704" data-name="Line 704" class="cls-2" x1="470.32" y1="353.11" x2="486.98" y2="353.11"/><line id="Line_705" data-name="Line 705" class="cls-2" x1="473.76" y1="359.66" x2="484.87" y2="359.66"/><line id="Line_706" data-name="Line 706" class="cls-2" x1="477.54" y1="366.33" x2="482.87" y2="366.33"/><path id="Path_1524" data-name="Path 1524" class="cls-2" d="M511.3,389.5,548,397.19s-1.32,7-10.6,9.05"/><path id="Path_1525" data-name="Path 1525" class="cls-2" d="M281.59,246.4h10.12v-4.74h-15"/><line id="Line_707" data-name="Line 707" class="cls-2" x1="259.34" y1="209.18" x2="274.74" y2="209.18"/><line id="Line_708" data-name="Line 708" class="cls-2" x1="259.34" y1="204.75" x2="274.31" y2="204.75"/><path id="Path_1526" data-name="Path 1526" class="cls-2" d="M242.37,333.33s23.59,15.33,23.94,15.45"/><line id="Line_709" data-name="Line 709" class="cls-2" x1="250.16" y1="333.1" x2="262.01" y2="340.65"/></g></g></g></svg>